<svg width="22" height="24" viewBox="0 0 22 24" fill="none" xmlns="http://www.w3.org/2000/svg">
<path d="M1.90002 6.02222H4.02225H21" stroke="#4F4F4F" stroke-width="2" stroke-linecap="round" stroke-linejoin="round"/>
<path d="M7.20567 6.02222V3.89999C7.20567 3.33715 7.42926 2.79735 7.82726 2.39936C8.22525 2.00136 8.76505 1.77777 9.3279 1.77777H13.5723C14.1352 1.77777 14.675 2.00136 15.073 2.39936C15.471 2.79735 15.6946 3.33715 15.6946 3.89999V6.02222M18.8779 6.02222V20.8778C18.8779 21.4406 18.6543 21.9804 18.2563 22.3784C17.8583 22.7764 17.3185 23 16.7557 23H6.14456C5.58171 23 5.04192 22.7764 4.64392 22.3784C4.24593 21.9804 4.02234 21.4406 4.02234 20.8778V6.02222H18.8779Z" stroke="#4F4F4F" stroke-width="2" stroke-linecap="round" stroke-linejoin="round"/>
<path d="M9.32776 11.3278V17.6944" stroke="#4F4F4F" stroke-width="2" stroke-linecap="round" stroke-linejoin="round"/>
<path d="M13.5722 11.3278V17.6944" stroke="#4F4F4F" stroke-width="2" stroke-linecap="round" stroke-linejoin="round"/>
</svg>
